<svg xmlns="http://www.w3.org/2000/svg" width="900" height="650" viewBox="0 0 900 650">
<rect width="100%" height="100%" fill="white"/>
<text x="450.0" y="28" text-anchor="middle" font-family="sans-serif" font-size="20">MB2_OnOffMarkov average autocorrelation</text>
<line x1="90" y1="570" x2="870" y2="570" stroke="black"/>
<line x1="90" y1="55" x2="90" y2="570" stroke="black"/>
<line x1="90.0" y1="570" x2="90.0" y2="575" stroke="black"/>
<text x="90.0" y="595" text-anchor="middle" font-family="sans-serif" font-size="12">10^0</text>
<line x1="260.2472377937755" y1="570" x2="260.2472377937755" y2="575" stroke="black"/>
<text x="260.2472377937755" y="595" text-anchor="middle" font-family="sans-serif" font-size="12">10^1</text>
<line x1="430.49447558755105" y1="570" x2="430.49447558755105" y2="575" stroke="black"/>
<text x="430.49447558755105" y="595" text-anchor="middle" font-family="sans-serif" font-size="12">10^2</text>
<line x1="600.7417133813267" y1="570" x2="600.7417133813267" y2="575" stroke="black"/>
<text x="600.7417133813267" y="595" text-anchor="middle" font-family="sans-serif" font-size="12">10^3</text>
<line x1="770.9889511751021" y1="570" x2="770.9889511751021" y2="575" stroke="black"/>
<text x="770.9889511751021" y="595" text-anchor="middle" font-family="sans-serif" font-size="12">10^4</text>
<line x1="85" y1="543.0501455741664" x2="90" y2="543.0501455741664" stroke="black"/>
<text x="80" y="547.0501455741664" text-anchor="end" font-family="sans-serif" font-size="12">10^-4</text>
<line x1="85" y1="414.1910322090174" x2="90" y2="414.1910322090174" stroke="black"/>
<text x="80" y="418.1910322090174" text-anchor="end" font-family="sans-serif" font-size="12">10^-3</text>
<line x1="85" y1="285.33191884386827" x2="90" y2="285.33191884386827" stroke="black"/>
<text x="80" y="289.33191884386827" text-anchor="end" font-family="sans-serif" font-size="12">10^-2</text>
<line x1="85" y1="156.47280547871918" x2="90" y2="156.47280547871918" stroke="black"/>
<text x="80" y="160.47280547871918" text-anchor="end" font-family="sans-serif" font-size="12">10^-1</text>
<polyline fill="none" stroke="#1f77b4" stroke-width="2" points="90.0,55.0 141.25,69.25 171.23,75.51 192.5,78.24 209.0,79.5 222.48,80.22 233.88,80.81 243.75,81.3 252.46,81.83 260.25,82.33 267.29,82.81 273.73,83.29 279.65,83.78 285.13,84.3 290.23,84.76 295.0,85.29 299.48,85.75 303.71,86.29 307.7,86.87 311.5,87.41 315.1,87.96 318.54,88.54 321.83,89.02 324.98,89.59 329.45,90.35 333.69,91.15 336.37,91.74 340.22,92.64 343.9,93.59 347.39,94.52 350.73,95.47 353.91,96.4 357.97,97.63 361.81,98.91 365.46,100.24 368.94,101.63 372.27,103.04 375.45,104.4 379.24,106.26 382.85,108.1 386.28,109.9 389.58,111.52 392.72,113.13 396.33,114.87 400.32,116.7 404.12,118.62 407.22,120.16 410.68,121.68 414.45,123.25 418.04,124.8 421.46,126.18 425.12,127.6 428.62,128.96 431.95,130.08 435.49,131.17 439.19,132.2 442.73,133.29 446.09,134.17 449.88,135.23 453.49,136.28 456.93,137.21 460.47,138.29 464.07,139.43 467.74,140.43 471.23,141.49 474.76,142.63 478.33,143.85 481.92,145.11 485.52,146.26 488.95,147.47 492.39,148.6 495.98,149.9 499.55,151.22 503.1,152.63 506.62,153.84 510.1,155.21 513.66,156.6 517.29,158.01 520.86,159.55 524.37,161.07 527.92,162.59 531.49,163.81 534.99,165.11 538.51,166.12 542.1,167.53 545.69,168.93 549.19,170.31 552.67,171.57 556.26,173.19 559.82,174.52 563.33,175.84 566.92,177.0 570.46,178.56 573.99,180.25 577.57,181.76 581.12,183.34 584.65,184.83 588.19,186.36 591.74,188.37 595.29,189.44 598.82,190.44 602.34,190.95 605.91,192.82 609.48,195.56 613.0,196.56 616.55,198.57 620.1,200.84 623.63,203.69 627.18,207.11 630.74,209.33 634.27,211.0 637.83,213.51 641.39,215.08 644.93,215.8 648.46,218.87 652.0,221.71 655.56,223.42 659.1,223.47 662.64,223.42 666.19,225.99 669.73,227.61 673.28,229.52 676.84,231.34 680.38,234.31 683.92,238.19 687.47,242.7 691.02,241.47 694.57,241.56 698.11,247.53 701.65,251.73 705.2,260.29 708.74,256.53 712.29,258.91 715.84,264.04 719.38,267.88 722.93,268.46 726.48,276.24 730.02,280.31 733.57,284.05 737.11,286.96 740.66,291.34 744.2,297.89 747.75,308.88 751.29,318.55 754.84,327.91 758.38,334.71 761.93,348.06 765.48,370.53 769.03,356.9 772.56,385.89 776.29,386.58 779.66,400.46 782.82,464.1 787.56,413.23 790.28,422.2 794.04,431.4 797.29,408.41 799.68,512.58 811.28,415.52 825.77,570.0 870.0,541.04"/>
<line x1="770.98" y1="55" x2="770.98" y2="570" stroke="#d62728" stroke-width="2" stroke-dasharray="7 5"/>
<line x1="600" y1="73" x2="640" y2="73" stroke="#d62728" stroke-width="2" stroke-dasharray="7 5"/>
<text x="648" y="77" font-family="sans-serif" font-size="12">finite-sample limit n/10</text>
<text x="450.0" y="625" text-anchor="middle" font-family="sans-serif" font-size="16">lag</text>
<text x="25" y="325.0" transform="rotate(-90 25 325.0)" text-anchor="middle" font-family="sans-serif" font-size="16">positive average autocorrelation</text>
</svg>
