<svg xmlns="http://www.w3.org/2000/svg" width="1500" height="650" viewBox="0 0 1500 650">
<rect width="100%" height="100%" fill="white"/>
<text x="750.0" y="30" text-anchor="middle" font-family="sans-serif" font-size="22">MB3_FSS validation diagnostics</text>
<text x="380.0" y="83" text-anchor="middle" font-family="sans-serif" font-size="18">Autocorrelation</text>
<line x1="98" y1="560" x2="718" y2="560" stroke="black"/>
<line x1="98" y1="106" x2="98" y2="560" stroke="black"/>
<line x1="197.232680500416" y1="560" x2="197.232680500416" y2="565" stroke="black"/>
<text x="197.232680500416" y="584" text-anchor="middle" font-family="sans-serif" font-size="11">10^1</text>
<line x1="339.2025502871479" y1="560" x2="339.2025502871479" y2="565" stroke="black"/>
<text x="339.2025502871479" y="584" text-anchor="middle" font-family="sans-serif" font-size="11">10^2</text>
<line x1="481.1724200738798" y1="560" x2="481.1724200738798" y2="565" stroke="black"/>
<text x="481.1724200738798" y="584" text-anchor="middle" font-family="sans-serif" font-size="11">10^3</text>
<line x1="623.1422898606116" y1="560" x2="623.1422898606116" y2="565" stroke="black"/>
<text x="623.1422898606116" y="584" text-anchor="middle" font-family="sans-serif" font-size="11">10^4</text>
<line x1="93" y1="494.47707492629473" x2="98" y2="494.47707492629473" stroke="black"/>
<text x="89" y="498.47707492629473" text-anchor="end" font-family="sans-serif" font-size="11">10^-4</text>
<line x1="93" y1="372.2369897277605" x2="98" y2="372.2369897277605" stroke="black"/>
<text x="89" y="376.2369897277605" text-anchor="end" font-family="sans-serif" font-size="11">10^-3</text>
<line x1="93" y1="249.99690452922619" x2="98" y2="249.99690452922619" stroke="black"/>
<text x="89" y="253.99690452922619" text-anchor="end" font-family="sans-serif" font-size="11">10^-2</text>
<line x1="93" y1="127.75681933069188" x2="98" y2="127.75681933069188" stroke="black"/>
<text x="89" y="131.75681933069188" text-anchor="end" font-family="sans-serif" font-size="11">10^-1</text>
<polyline fill="none" stroke="#555555" stroke-width="2" stroke-dasharray="4 4" points="98.0,127.22 123.0,135.83 140.74,141.94 154.5,146.67 165.74,150.55 175.24,153.82 183.47,156.65 190.74,159.16 197.23,161.39 203.11,163.42 208.47,165.27 213.41,166.96 217.98,168.54 222.23,170.0 226.21,171.37 229.95,172.66 233.47,173.88 236.81,175.02 239.97,176.11 242.98,177.15 245.85,178.14 248.59,179.08 251.21,179.98 254.94,181.27 258.47,182.49 260.72,183.26 262.88,184.0 265.98,185.07 268.95,186.09 271.77,187.06 274.47,188.0 277.06,188.89 280.35,190.02 283.47,191.09 286.44,192.12 289.28,193.09 291.99,194.03 294.58,194.92 297.08,195.78 300.05,196.81 302.9,197.79 305.61,198.72 308.72,199.79 311.68,200.81 314.51,201.78 317.21,202.71 319.79,203.61 322.68,204.6 325.82,205.68 328.45,206.59 330.96,207.45 334.05,208.52 337.0,209.53 339.81,210.5 342.79,211.52 345.63,212.5 348.35,213.44 351.2,214.42 353.94,215.36 356.55,216.26 359.5,217.28 362.32,218.25 365.01,219.18 367.98,220.2 370.82,221.18 373.52,222.11 376.46,223.12 379.42,224.14 382.24,225.11 385.09,226.09 387.95,227.08 390.69,228.02 393.43,228.97 396.31,229.96 399.17,230.94 402.02,231.92 404.84,232.9 407.65,233.86 410.43,234.82 413.28,235.8 416.17,236.8 418.94,237.75 421.75,238.72 424.59,239.7 427.39,240.66 430.2,241.63 433.02,242.6 435.85,243.58 438.68,244.55 441.56,245.54 444.42,246.53 447.21,247.49 450.03,248.46 452.87,249.44 455.69,250.41 458.51,251.38 461.34,252.35 464.16,253.33 466.98,254.3 469.83,255.28 472.69,256.26 475.49,257.23 478.3,258.19 481.14,259.17 483.97,260.15 486.79,261.12 489.62,262.1 492.46,263.07 495.27,264.04 498.1,265.01 500.94,265.99 503.76,266.96 506.58,267.93 509.41,268.91 512.25,269.89 515.07,270.86 517.89,271.83 520.73,272.81 523.56,273.79 526.38,274.76 529.2,275.73 532.04,276.7 534.86,277.68 537.69,278.65 540.52,279.62 543.35,280.6 546.17,281.57 549.0,282.54 551.82,283.52 554.65,284.49 557.48,285.47 560.31,286.44 563.14,287.42 565.97,288.39 568.8,289.37 571.62,290.34 574.45,291.31 577.28,292.28 580.1,293.26 582.94,294.23 585.76,295.21 588.59,296.18 591.41,297.15 594.24,298.13 597.07,299.1 599.9,300.07 602.72,301.05 605.55,302.02 608.38,303.0 611.2,303.97 614.03,304.94 616.86,305.92 619.69,306.89 622.49,307.86 625.4,308.86 628.19,309.82 630.94,310.77 633.87,311.78 636.77,312.78 639.23,313.62 642.0,314.57 645.14,315.66 648.01,316.65 650.7,317.57 653.54,318.55 656.31,319.51 658.81,320.36 662.3,321.57 664.41,322.29 667.58,323.39 670.26,324.31 672.02,324.92 675.15,325.99 679.16,327.38 690.16,331.16 697.19,333.58 708.47,337.47 709.35,337.77 712.7,338.93 716.08,340.09 718.0,340.75"/>
<line x1="483" y1="122" x2="517" y2="122" stroke="#555555" stroke-width="2" stroke-dasharray="4 4"/>
<text x="525" y="126" font-family="sans-serif" font-size="11">nominal ACF beta=0.4</text>
<polyline fill="none" stroke="#1f77b4" stroke-width="2" points="98.0,127.22 123.0,106.0 140.74,119.19 154.5,129.4 165.74,130.61 175.24,133.14 183.47,136.06 190.74,138.8 197.23,141.25 203.11,143.42 208.47,145.08 213.41,146.38 217.98,148.58 222.23,150.43 226.21,151.79 229.95,152.94 233.47,154.91 236.81,155.57 239.97,156.94 242.98,158.26 245.85,158.79 248.59,160.34 251.21,161.44 254.94,162.7 258.47,163.59 260.72,165.29 262.88,165.1 265.98,166.71 268.95,167.74 271.77,169.22 274.47,169.59 277.06,170.74 280.35,172.06 283.47,173.46 286.44,174.28 289.28,174.95 291.99,176.84 294.58,176.58 297.08,178.7 300.05,179.56 302.9,180.81 305.61,181.69 308.72,183.19 311.68,183.87 314.51,185.41 317.21,186.02 319.79,187.14 322.68,188.3 325.82,189.61 328.45,190.97 330.96,191.86 334.05,192.91 337.0,194.24 339.81,195.4 342.79,196.34 345.63,197.32 348.35,198.52 351.2,199.91 353.94,200.98 356.55,202.27 359.5,203.25 362.32,204.2 365.01,205.01 367.98,206.19 370.82,207.68 373.52,208.78 376.46,210.31 379.42,211.58 382.24,212.63 385.09,214.29 387.95,215.34 390.69,216.54 393.43,217.59 396.31,219.15 399.17,220.31 402.02,221.5 404.84,222.47 407.65,223.83 410.43,224.69 413.28,226.06 416.17,226.75 418.94,228.19 421.75,228.94 424.59,229.8 427.39,230.32 430.2,232.11 433.02,233.69 435.85,235.58 438.68,235.39 441.56,236.98 444.42,238.31 447.21,240.41 450.03,242.14 452.87,242.91 455.69,244.01 458.51,244.69 461.34,246.24 464.16,248.84 466.98,249.47 469.83,250.73 472.69,249.87 475.49,252.76 478.3,254.54 481.14,255.99 483.97,258.14 486.79,259.82 489.62,261.36 492.46,262.86 495.27,263.37 498.1,265.1 500.94,267.43 503.76,269.49 506.58,272.63 509.41,273.53 512.25,271.78 515.07,272.8 517.89,275.04 520.73,277.12 523.56,276.5 526.38,280.19 529.2,283.47 532.04,284.04 534.86,286.21 537.69,287.07 540.52,288.19 543.35,292.55 546.17,296.89 549.0,298.59 551.82,303.16 554.65,308.36 557.48,310.65 560.31,313.97 563.14,315.32 565.97,317.68 568.8,316.38 571.62,325.21 574.45,324.01 577.28,324.15 580.1,329.31 582.94,331.68 585.76,334.79 588.59,334.08 591.41,333.98 594.24,342.19 597.07,336.64 599.9,346.1 602.72,347.16 605.55,351.59 608.38,353.66 611.2,352.18 614.03,364.17 616.86,371.69 619.69,371.29 622.49,402.89 625.4,408.61 628.19,409.6 630.94,424.74 633.87,442.97 636.77,436.05 639.23,422.88 642.0,464.9 645.14,476.29 648.01,475.3 650.7,465.44 653.54,484.71 656.31,465.97 658.81,462.95 662.3,464.81 664.41,487.17 667.58,485.18 670.26,475.91 672.02,560.0 675.15,480.09 679.16,483.45 690.16,534.44 697.19,445.48 708.47,487.55 709.35,436.96 712.7,473.0 716.08,479.6 718.0,482.61"/>
<line x1="623.14" y1="106" x2="623.14" y2="560" stroke="#d62728" stroke-width="2" stroke-dasharray="7 5"/>
<line x1="483" y1="139" x2="517" y2="139" stroke="#d62728" stroke-width="2" stroke-dasharray="7 5"/>
<text x="525" y="143" font-family="sans-serif" font-size="11">finite-sample limit n/10</text>
<text x="380.0" y="608" text-anchor="middle" font-family="sans-serif" font-size="14">lag</text>
<text x="42" y="343.0" transform="rotate(-90 42 343.0)" text-anchor="middle" font-family="sans-serif" font-size="14">positive average autocorrelation</text>
<text x="1120.0" y="83" text-anchor="middle" font-family="sans-serif" font-size="18">Power spectrum</text>
<line x1="838" y1="560" x2="1458" y2="560" stroke="black"/>
<line x1="838" y1="106" x2="838" y2="560" stroke="black"/>
<line x1="838.0" y1="560" x2="838.0" y2="565" stroke="black"/>
<text x="838.0" y="584" text-anchor="middle" font-family="sans-serif" font-size="11">10^-5</text>
<line x1="970.2418264533562" y1="560" x2="970.2418264533562" y2="565" stroke="black"/>
<text x="970.2418264533562" y="584" text-anchor="middle" font-family="sans-serif" font-size="11">10^-4</text>
<line x1="1102.4836529067125" y1="560" x2="1102.4836529067125" y2="565" stroke="black"/>
<text x="1102.4836529067125" y="584" text-anchor="middle" font-family="sans-serif" font-size="11">10^-3</text>
<line x1="1234.725479360069" y1="560" x2="1234.725479360069" y2="565" stroke="black"/>
<text x="1234.725479360069" y="584" text-anchor="middle" font-family="sans-serif" font-size="11">10^-2</text>
<line x1="1366.9673058134251" y1="560" x2="1366.9673058134251" y2="565" stroke="black"/>
<text x="1366.9673058134251" y="584" text-anchor="middle" font-family="sans-serif" font-size="11">10^-1</text>
<line x1="833" y1="465.09479532664716" x2="838" y2="465.09479532664716" stroke="black"/>
<text x="829" y="469.09479532664716" text-anchor="end" font-family="sans-serif" font-size="11">10^-1</text>
<line x1="833" y1="303.70288884862634" x2="838" y2="303.70288884862634" stroke="black"/>
<text x="829" y="307.70288884862634" text-anchor="end" font-family="sans-serif" font-size="11">10^0</text>
<line x1="833" y1="142.3109823706056" x2="838" y2="142.3109823706056" stroke="black"/>
<text x="829" y="146.3109823706056" text-anchor="end" font-family="sans-serif" font-size="11">10^1</text>
<polyline fill="none" stroke="#555555" stroke-width="2" stroke-dasharray="4 4" points="838.0,106.0 877.81,135.15 901.1,152.2 917.62,164.3 930.43,173.68 940.9,181.35 949.76,187.84 957.43,193.45 964.19,198.4 970.24,202.84 975.72,206.84 980.71,210.5 985.31,213.87 989.57,216.99 993.53,219.89 997.24,222.6 1000.72,225.15 1004.0,227.55 1007.1,229.83 1010.05,231.99 1012.85,234.04 1015.52,235.99 1018.08,237.86 1020.52,239.65 1022.87,241.37 1025.12,243.02 1028.33,245.37 1031.39,247.61 1034.28,249.73 1037.04,251.75 1039.67,253.67 1043.0,256.11 1046.15,258.42 1048.41,260.07 1051.27,262.17 1054.67,264.66 1057.25,266.55 1059.73,268.36 1062.67,270.51 1065.47,272.57 1068.14,274.52 1071.19,276.76 1074.09,278.88 1076.85,280.9 1079.48,282.83 1082.4,284.96 1085.19,287.0 1087.84,288.95 1090.73,291.06 1093.48,293.08 1096.43,295.23 1099.23,297.29 1101.9,299.24 1104.73,301.32 1107.69,303.48 1110.51,305.54 1113.19,307.51 1116.2,309.72 1119.07,311.82 1121.8,313.82 1124.6,315.87 1127.46,317.96 1130.36,320.08 1133.12,322.11 1135.92,324.15 1138.73,326.21 1141.56,328.29 1144.4,330.36 1147.24,332.44 1150.06,334.51 1152.88,336.57 1155.79,338.7 1158.67,340.81 1161.41,342.82 1164.22,344.87 1167.08,346.98 1169.9,349.04 1172.76,351.13 1175.56,353.18 1178.39,355.25 1181.23,357.33 1184.0,359.36 1186.85,361.45 1189.68,363.52 1192.51,365.59 1195.31,367.64 1198.09,369.68 1200.96,371.78 1203.78,373.85 1206.61,375.92 1209.45,377.99 1212.27,380.06 1215.09,382.13 1217.89,384.18 1220.74,386.27 1223.57,388.33 1226.39,390.4 1229.21,392.47 1232.02,394.52 1234.86,396.61 1237.69,398.67 1240.51,400.74 1243.34,402.82 1246.16,404.88 1248.99,406.95 1251.81,409.01 1254.64,411.08 1257.47,413.16 1260.28,415.22 1263.1,417.28 1265.93,419.36 1268.76,421.43 1271.58,423.49 1274.4,425.56 1277.22,427.62 1280.05,429.7 1282.88,431.77 1285.7,433.83 1288.53,435.9 1291.35,437.97 1294.18,440.04 1297.01,442.11 1299.83,444.18 1302.65,446.24 1305.47,448.31 1308.3,450.38 1311.13,452.45 1313.95,454.52 1316.77,456.58 1319.6,458.65 1322.42,460.72 1325.24,462.79 1328.07,464.86 1330.89,466.93 1333.72,468.99 1336.55,471.06 1339.37,473.13 1342.19,475.2 1345.02,477.27 1347.84,479.34 1350.66,481.4 1353.49,483.47 1356.32,485.54 1359.14,487.61 1361.97,489.68 1364.79,491.75 1367.61,493.81 1370.44,495.88 1373.26,497.95 1376.09,500.02 1378.91,502.09 1381.74,504.15 1384.56,506.22 1387.38,508.29 1390.21,510.36 1393.03,512.43 1395.86,514.5 1398.68,516.57 1401.51,518.63 1404.33,520.7 1407.16,522.77 1409.98,524.84 1412.81,526.91 1415.63,528.98 1418.46,531.04 1421.28,533.11 1424.1,535.18 1426.93,537.25 1429.75,539.32 1432.58,541.38 1435.4,543.45 1438.23,545.52 1441.05,547.59 1443.88,549.66 1446.7,551.73 1449.53,553.79 1452.35,555.86 1455.18,557.93 1458.0,560.0"/>
<line x1="1223" y1="122" x2="1257" y2="122" stroke="#555555" stroke-width="2" stroke-dasharray="4 4"/>
<text x="1265" y="126" font-family="sans-serif" font-size="11">nominal spectrum beta=0.4</text>
<polyline fill="none" stroke="#1f77b4" stroke-width="2" points="838.0,106.0 877.81,120.83 901.1,149.09 917.62,159.04 930.43,161.98 940.9,177.49 949.76,183.11 957.43,189.27 964.19,187.13 970.24,190.73 975.72,192.49 980.71,193.7 985.31,199.9 989.57,209.67 993.53,204.6 997.24,221.6 1000.72,210.8 1004.0,229.22 1007.1,221.35 1010.05,225.35 1012.85,230.79 1015.52,236.15 1018.08,231.33 1020.52,226.52 1022.87,238.65 1025.12,242.84 1028.33,239.89 1031.39,258.39 1034.28,240.06 1037.04,242.23 1039.67,246.89 1043.0,252.07 1046.15,242.83 1048.41,253.85 1051.27,252.9 1054.67,261.9 1057.25,248.38 1059.73,254.02 1062.67,268.34 1065.47,267.98 1068.14,268.76 1071.19,273.88 1074.09,273.18 1076.85,271.07 1079.48,282.76 1082.4,277.38 1085.19,274.82 1087.84,283.67 1090.73,287.93 1093.48,283.95 1096.43,290.34 1099.23,287.88 1101.9,293.01 1104.73,288.7 1107.69,295.24 1110.51,297.38 1113.19,298.81 1116.2,302.44 1119.07,306.16 1121.8,307.55 1124.6,308.17 1127.46,309.0 1130.36,311.51 1133.12,312.27 1135.92,317.62 1138.73,319.52 1141.56,317.56 1144.4,324.29 1147.24,324.3 1150.06,321.76 1152.88,326.71 1155.79,333.42 1158.67,333.51 1161.41,339.62 1164.22,336.21 1167.08,338.47 1169.9,346.15 1172.76,344.43 1175.56,346.06 1178.39,351.48 1181.23,352.41 1184.0,352.34 1186.85,355.12 1189.68,357.06 1192.51,357.94 1195.31,363.25 1198.09,364.04 1200.96,364.17 1203.78,367.27 1206.61,370.27 1209.45,375.03 1212.27,375.31 1215.09,373.94 1217.89,380.53 1220.74,380.66 1223.57,384.14 1226.39,387.93 1229.21,387.74 1232.02,389.69 1234.86,391.85 1237.69,396.09 1240.51,397.54 1243.34,397.96 1246.16,400.53 1248.99,404.46 1251.81,404.6 1254.64,408.17 1257.47,410.86 1260.28,413.0 1263.1,414.14 1265.93,416.3 1268.76,418.75 1271.58,421.24 1274.4,423.28 1277.22,426.67 1280.05,428.3 1282.88,431.35 1285.7,432.61 1288.53,434.28 1291.35,437.15 1294.18,439.8 1297.01,442.59 1299.83,444.67 1302.65,447.46 1305.47,448.41 1308.3,451.69 1311.13,452.89 1313.95,455.09 1316.77,457.48 1319.6,459.06 1322.42,461.27 1325.24,464.17 1328.07,465.66 1330.89,467.13 1333.72,468.99 1336.55,470.46 1339.37,472.14 1342.19,473.08 1345.02,475.39 1347.84,476.63 1350.66,477.25 1353.49,478.73 1356.32,479.84 1359.14,481.03 1361.97,481.49 1364.79,482.26 1367.61,482.13 1370.44,482.11 1373.26,482.69 1376.09,482.66 1378.91,481.48 1381.74,480.43 1384.56,478.56 1387.38,477.13 1390.21,475.43 1393.03,473.0 1395.86,470.67 1398.68,467.54 1401.51,464.29 1404.33,460.62 1407.16,456.54 1409.98,452.21 1412.81,447.45 1415.63,442.94 1418.46,438.42 1421.28,434.97 1424.1,430.71 1426.93,427.77 1429.75,424.67 1432.58,422.16 1435.4,420.78 1438.23,419.56 1441.05,418.59 1443.88,418.21 1446.7,417.8 1449.53,417.66 1452.35,417.45 1455.18,417.12 1458.0,417.04"/>
<line x1="970.25" y1="106" x2="970.25" y2="560" stroke="#d62728" stroke-width="2" stroke-dasharray="7 5"/>
<line x1="1223" y1="139" x2="1257" y2="139" stroke="#d62728" stroke-width="2" stroke-dasharray="7 5"/>
<text x="1265" y="143" font-family="sans-serif" font-size="11">finite-sample limit n/10</text>
<text x="1120.0" y="608" text-anchor="middle" font-family="sans-serif" font-size="14">frequency</text>
<text x="782" y="343.0" transform="rotate(-90 782 343.0)" text-anchor="middle" font-family="sans-serif" font-size="14">average periodogram</text>
</svg>
