<svg xmlns="http://www.w3.org/2000/svg" width="1500" height="650" viewBox="0 0 1500 650">
<rect width="100%" height="100%" fill="white"/>
<text x="750.0" y="30" text-anchor="middle" font-family="sans-serif" font-size="22">MB4_HawkesSymbol validation diagnostics</text>
<text x="380.0" y="83" text-anchor="middle" font-family="sans-serif" font-size="18">Autocorrelation</text>
<line x1="98" y1="560" x2="718" y2="560" stroke="black"/>
<line x1="98" y1="106" x2="98" y2="560" stroke="black"/>
<line x1="98.0" y1="560" x2="98.0" y2="565" stroke="black"/>
<text x="98.0" y="584" text-anchor="middle" font-family="sans-serif" font-size="11">10^0</text>
<line x1="230.24279958573138" y1="560" x2="230.24279958573138" y2="565" stroke="black"/>
<text x="230.24279958573138" y="584" text-anchor="middle" font-family="sans-serif" font-size="11">10^1</text>
<line x1="362.48559917146275" y1="560" x2="362.48559917146275" y2="565" stroke="black"/>
<text x="362.48559917146275" y="584" text-anchor="middle" font-family="sans-serif" font-size="11">10^2</text>
<line x1="494.72839875719404" y1="560" x2="494.72839875719404" y2="565" stroke="black"/>
<text x="494.72839875719404" y="584" text-anchor="middle" font-family="sans-serif" font-size="11">10^3</text>
<line x1="626.9711983429255" y1="560" x2="626.9711983429255" y2="565" stroke="black"/>
<text x="626.9711983429255" y="584" text-anchor="middle" font-family="sans-serif" font-size="11">10^4</text>
<line x1="93" y1="499.0548384085518" x2="98" y2="499.0548384085518" stroke="black"/>
<text x="89" y="503.0548384085518" text-anchor="end" font-family="sans-serif" font-size="11">10^-5</text>
<line x1="93" y1="297.80720573401015" x2="98" y2="297.80720573401015" stroke="black"/>
<text x="89" y="301.80720573401015" text-anchor="end" font-family="sans-serif" font-size="11">10^-4</text>
<polyline fill="none" stroke="#555555" stroke-width="2" stroke-dasharray="4 4" points="98.0,182.59 137.81,206.83 161.1,221.0 177.62,231.06 190.43,238.86 200.9,245.23 209.76,250.62 217.43,255.29 224.19,259.41 230.24,263.09 235.72,266.42 240.71,269.47 245.31,272.26 249.57,274.85 257.24,279.52 260.72,281.64 264.0,283.64 267.11,285.53 270.05,287.32 275.53,290.66 278.08,292.21 282.87,295.13 285.12,296.5 288.33,298.45 291.39,300.31 295.22,302.65 297.05,303.76 298.81,304.83 303.0,307.38 306.92,309.76 308.41,310.67 311.97,312.84 314.67,314.49 317.26,316.06 319.12,317.19 323.25,319.7 324.93,320.73 328.14,322.69 331.2,324.55 334.56,326.59 336.85,327.99 339.91,329.85 342.81,331.61 345.58,333.3 347.96,334.75 350.61,336.36 353.59,338.18 356.27,339.81 359.33,341.67 362.09,343.35 364.73,344.96 367.68,346.75 370.34,348.37 372.83,349.89 375.98,351.81 379.43,353.91 381.53,355.18 384.48,356.98 387.46,358.79 390.39,360.58 392.9,362.1 396.29,364.17 398.66,365.61 401.64,367.42 404.16,368.96 407.31,370.88 410.07,372.55 413.0,374.34 416.02,376.18 419.16,378.09 421.29,379.39 424.42,381.29 427.09,382.91 429.96,384.67 432.62,386.28 435.22,387.86 438.21,389.69 441.34,391.59 443.73,393.05 446.88,394.96 449.67,396.66 452.34,398.29 455.15,400.0 458.13,401.81 460.84,403.46 463.78,405.25 466.78,407.08 469.53,408.75 472.31,410.44 475.1,412.14 478.05,413.94 480.72,415.56 483.46,417.23 486.31,418.97 489.14,420.69 491.96,422.41 494.77,424.12 497.55,425.81 500.55,427.63 503.47,429.41 506.15,431.04 508.92,432.73 511.93,434.56 514.75,436.27 517.49,437.95 520.31,439.66 523.11,441.37 525.92,443.08 528.82,444.84 531.51,446.48 534.25,448.15 537.14,449.91 540.06,451.69 542.88,453.4 545.8,455.18 548.39,456.75 551.41,458.59 554.16,460.27 557.09,462.05 559.79,463.7 562.75,465.5 565.51,467.18 568.35,468.9 571.19,470.63 573.92,472.3 576.76,474.03 579.62,475.76 582.36,477.43 585.21,479.17 588.1,480.93 590.98,482.68 593.76,484.37 596.55,486.07 599.3,487.75 602.18,489.5 605.03,491.23 607.84,492.94 610.62,494.64 613.44,496.35 616.37,498.13 619.16,499.83 621.96,501.54 624.78,503.25 627.68,505.02 630.48,506.73 633.23,508.4 636.11,510.15 638.93,511.87 641.7,513.55 644.59,515.31 647.41,517.03 650.2,518.73 653.05,520.47 655.86,522.17 658.66,523.88 661.46,525.58 664.34,527.33 667.18,529.06 669.98,530.77 672.81,532.49 675.63,534.21 678.44,535.92 681.3,537.66 684.11,539.37 686.94,541.09 689.72,542.79 692.55,544.51 695.42,546.26 698.24,547.97 701.06,549.69 703.88,551.4 706.72,553.13 709.54,554.85 712.37,556.57 715.21,558.3 718.0,560.0"/>
<line x1="483" y1="122" x2="517" y2="122" stroke="#555555" stroke-width="2" stroke-dasharray="4 4"/>
<text x="525" y="126" font-family="sans-serif" font-size="11">nominal ACF beta=0.4</text>
<polyline fill="none" stroke="#1f77b4" stroke-width="2" points="98.0,182.59 137.81,227.5 161.1,114.36 177.62,135.17 190.43,117.47 200.9,138.89 209.76,202.39 217.43,247.46 224.19,271.26 230.24,464.53 235.72,119.95 240.71,171.58 245.31,154.08 249.57,106.0 257.24,447.58 260.72,236.9 264.0,247.34 267.11,111.68 270.05,225.74 275.53,187.09 278.08,122.46 282.87,135.61 285.12,217.14 288.33,196.5 291.39,259.11 295.22,176.43 297.05,224.45 298.81,205.8 303.0,226.86 306.92,395.11 308.41,154.4 311.97,177.62 314.67,441.53 317.26,304.39 319.12,296.17 323.25,213.32 324.93,169.36 328.14,141.09 331.2,208.45 334.56,175.34 336.85,171.93 339.91,226.3 342.81,184.75 345.58,239.01 347.96,195.57 350.61,184.66 353.59,203.96 356.27,202.77 359.33,239.77 362.09,230.95 364.73,234.7 367.68,208.12 370.34,212.64 372.83,165.53 375.98,189.34 379.43,188.02 381.53,225.38 384.48,215.59 387.46,166.03 390.39,235.9 392.9,226.67 396.29,212.03 398.66,225.57 401.64,193.23 404.16,217.37 407.31,236.55 410.07,213.6 413.0,244.71 416.02,192.01 419.16,175.91 421.29,224.07 424.42,267.01 427.09,224.06 429.96,215.87 432.62,204.22 435.22,223.5 438.21,229.55 441.34,217.73 443.73,256.76 446.88,216.48 449.67,207.78 452.34,213.56 455.15,222.62 458.13,205.09 460.84,242.7 463.78,207.35 466.78,189.91 469.53,213.96 472.31,238.24 475.1,227.02 478.05,224.03 480.72,195.17 483.46,214.61 486.31,211.69 489.14,201.27 491.96,203.17 494.77,228.88 497.55,227.13 500.55,214.13 503.47,226.0 506.15,221.95 508.92,219.3 511.93,211.65 514.75,213.92 517.49,224.89 520.31,226.81 523.11,203.53 525.92,218.9 528.82,220.12 531.51,214.15 534.25,208.5 537.14,213.39 540.06,227.38 542.88,222.18 545.8,207.47 548.39,207.64 551.41,232.0 554.16,206.59 557.09,227.77 559.79,215.55 562.75,226.09 565.51,207.69 568.35,220.66 571.19,218.75 573.92,222.79 576.76,230.55 579.62,223.17 582.36,219.15 585.21,223.71 588.1,228.68 590.98,221.18 593.76,216.19 596.55,213.74 599.3,218.49 602.18,213.82 605.03,216.66 607.84,221.13 610.62,219.31 613.44,210.3 616.37,217.7 619.16,223.54 621.96,212.49 624.78,218.02 627.68,209.85 630.48,222.17 633.23,221.92 636.11,216.36 638.93,224.85 641.7,213.8 644.59,218.84 647.41,214.4 650.2,219.5 653.05,212.63 655.86,216.16 658.66,214.62 661.46,214.23 664.34,214.19 667.18,213.21 669.98,211.66 672.81,214.5 675.63,211.14 678.44,212.1 681.3,216.72 684.11,209.86 686.94,208.47 689.72,214.13 692.55,210.16 695.42,210.66 698.24,212.95 701.06,207.83 703.88,206.22 706.72,205.74 709.54,204.81 712.37,201.88 715.21,198.81 718.0,201.48"/>
<line x1="626.97" y1="106" x2="626.97" y2="560" stroke="#d62728" stroke-width="2" stroke-dasharray="7 5"/>
<line x1="483" y1="139" x2="517" y2="139" stroke="#d62728" stroke-width="2" stroke-dasharray="7 5"/>
<text x="525" y="143" font-family="sans-serif" font-size="11">finite-sample limit n/10</text>
<line x1="230.24" y1="106" x2="230.24" y2="560" stroke="#2ca02c" stroke-width="2" stroke-dasharray="7 5"/>
<line x1="483" y1="156" x2="517" y2="156" stroke="#2ca02c" stroke-width="2" stroke-dasharray="7 5"/>
<text x="525" y="160" font-family="sans-serif" font-size="11">approx. power-law onset</text>
<line x1="666.78" y1="106" x2="666.78" y2="560" stroke="#9467bd" stroke-width="2" stroke-dasharray="7 5"/>
<line x1="483" y1="173" x2="517" y2="173" stroke="#9467bd" stroke-width="2" stroke-dasharray="7 5"/>
<text x="525" y="177" font-family="sans-serif" font-size="11">generator memory limit</text>
<text x="380.0" y="608" text-anchor="middle" font-family="sans-serif" font-size="14">lag</text>
<text x="42" y="343.0" transform="rotate(-90 42 343.0)" text-anchor="middle" font-family="sans-serif" font-size="14">positive average autocorrelation</text>
<text x="1120.0" y="83" text-anchor="middle" font-family="sans-serif" font-size="18">Power spectrum</text>
<line x1="838" y1="560" x2="1458" y2="560" stroke="black"/>
<line x1="838" y1="106" x2="838" y2="560" stroke="black"/>
<line x1="838.0" y1="560" x2="838.0" y2="565" stroke="black"/>
<text x="838.0" y="584" text-anchor="middle" font-family="sans-serif" font-size="11">10^-5</text>
<line x1="970.2418264533562" y1="560" x2="970.2418264533562" y2="565" stroke="black"/>
<text x="970.2418264533562" y="584" text-anchor="middle" font-family="sans-serif" font-size="11">10^-4</text>
<line x1="1102.4836529067125" y1="560" x2="1102.4836529067125" y2="565" stroke="black"/>
<text x="1102.4836529067125" y="584" text-anchor="middle" font-family="sans-serif" font-size="11">10^-3</text>
<line x1="1234.725479360069" y1="560" x2="1234.725479360069" y2="565" stroke="black"/>
<text x="1234.725479360069" y="584" text-anchor="middle" font-family="sans-serif" font-size="11">10^-2</text>
<line x1="1366.9673058134251" y1="560" x2="1366.9673058134251" y2="565" stroke="black"/>
<text x="1366.9673058134251" y="584" text-anchor="middle" font-family="sans-serif" font-size="11">10^-1</text>
<line x1="833" y1="540.702646526581" x2="838" y2="540.702646526581" stroke="black"/>
<text x="829" y="544.702646526581" text-anchor="end" font-family="sans-serif" font-size="11">10^-3</text>
<line x1="833" y1="379.31074004856015" x2="838" y2="379.31074004856015" stroke="black"/>
<text x="829" y="383.31074004856015" text-anchor="end" font-family="sans-serif" font-size="11">10^-2</text>
<line x1="833" y1="217.91883357053933" x2="838" y2="217.91883357053933" stroke="black"/>
<text x="829" y="221.91883357053933" text-anchor="end" font-family="sans-serif" font-size="11">10^-1</text>
<polyline fill="none" stroke="#555555" stroke-width="2" stroke-dasharray="4 4" points="838.0,106.0 877.81,135.15 901.1,152.2 917.62,164.3 930.43,173.68 940.9,181.35 949.76,187.84 957.43,193.45 964.19,198.4 970.24,202.84 975.72,206.84 980.71,210.5 985.31,213.87 989.57,216.99 993.53,219.89 997.24,222.6 1000.72,225.15 1004.0,227.55 1007.1,229.83 1010.05,231.99 1012.85,234.04 1015.52,235.99 1018.08,237.86 1020.52,239.65 1022.87,241.37 1025.12,243.02 1028.33,245.37 1031.39,247.61 1034.28,249.73 1037.04,251.75 1039.67,253.67 1043.0,256.11 1046.15,258.42 1048.41,260.07 1051.27,262.17 1054.67,264.66 1057.25,266.55 1059.73,268.36 1062.67,270.51 1065.47,272.57 1068.14,274.52 1071.19,276.76 1074.09,278.88 1076.85,280.9 1079.48,282.83 1082.4,284.96 1085.19,287.0 1087.84,288.95 1090.73,291.06 1093.48,293.08 1096.43,295.23 1099.23,297.29 1101.9,299.24 1104.73,301.32 1107.69,303.48 1110.51,305.54 1113.19,307.51 1116.2,309.72 1119.07,311.82 1121.8,313.82 1124.6,315.87 1127.46,317.96 1130.36,320.08 1133.12,322.11 1135.92,324.15 1138.73,326.21 1141.56,328.29 1144.4,330.36 1147.24,332.44 1150.06,334.51 1152.88,336.57 1155.79,338.7 1158.67,340.81 1161.41,342.82 1164.22,344.87 1167.08,346.98 1169.9,349.04 1172.76,351.13 1175.56,353.18 1178.39,355.25 1181.23,357.33 1184.0,359.36 1186.85,361.45 1189.68,363.52 1192.51,365.59 1195.31,367.64 1198.09,369.68 1200.96,371.78 1203.78,373.85 1206.61,375.92 1209.45,377.99 1212.27,380.06 1215.09,382.13 1217.89,384.18 1220.74,386.27 1223.57,388.33 1226.39,390.4 1229.21,392.47 1232.02,394.52 1234.86,396.61 1237.69,398.67 1240.51,400.74 1243.34,402.82 1246.16,404.88 1248.99,406.95 1251.81,409.01 1254.64,411.08 1257.47,413.16 1260.28,415.22 1263.1,417.28 1265.93,419.36 1268.76,421.43 1271.58,423.49 1274.4,425.56 1277.22,427.62 1280.05,429.7 1282.88,431.77 1285.7,433.83 1288.53,435.9 1291.35,437.97 1294.18,440.04 1297.01,442.11 1299.83,444.18 1302.65,446.24 1305.47,448.31 1308.3,450.38 1311.13,452.45 1313.95,454.52 1316.77,456.58 1319.6,458.65 1322.42,460.72 1325.24,462.79 1328.07,464.86 1330.89,466.93 1333.72,468.99 1336.55,471.06 1339.37,473.13 1342.19,475.2 1345.02,477.27 1347.84,479.34 1350.66,481.4 1353.49,483.47 1356.32,485.54 1359.14,487.61 1361.97,489.68 1364.79,491.75 1367.61,493.81 1370.44,495.88 1373.26,497.95 1376.09,500.02 1378.91,502.09 1381.74,504.15 1384.56,506.22 1387.38,508.29 1390.21,510.36 1393.03,512.43 1395.86,514.5 1398.68,516.57 1401.51,518.63 1404.33,520.7 1407.16,522.77 1409.98,524.84 1412.81,526.91 1415.63,528.98 1418.46,531.04 1421.28,533.11 1424.1,535.18 1426.93,537.25 1429.75,539.32 1432.58,541.38 1435.4,543.45 1438.23,545.52 1441.05,547.59 1443.88,549.66 1446.7,551.73 1449.53,553.79 1452.35,555.86 1455.18,557.93 1458.0,560.0"/>
<line x1="1223" y1="122" x2="1257" y2="122" stroke="#555555" stroke-width="2" stroke-dasharray="4 4"/>
<text x="1265" y="126" font-family="sans-serif" font-size="11">nominal spectrum beta=0.4</text>
<polyline fill="none" stroke="#1f77b4" stroke-width="2" points="838.0,106.0 877.81,155.38 901.1,172.82 917.62,180.08 930.43,167.4 940.9,178.1 949.76,176.26 957.43,185.26 964.19,179.85 970.24,186.86 975.72,173.37 980.71,182.97 985.31,174.34 989.57,178.89 993.53,182.09 997.24,178.15 1000.72,177.35 1004.0,181.78 1007.1,173.45 1010.05,190.21 1012.85,177.52 1015.52,185.14 1018.08,182.54 1020.52,172.03 1022.87,185.76 1025.12,184.05 1028.33,178.07 1031.39,178.58 1034.28,171.4 1037.04,176.61 1039.67,179.74 1043.0,173.8 1046.15,182.58 1048.41,175.76 1051.27,179.45 1054.67,185.57 1057.25,185.9 1059.73,177.93 1062.67,181.01 1065.47,186.66 1068.14,182.68 1071.19,185.0 1074.09,184.05 1076.85,180.46 1079.48,178.27 1082.4,185.61 1085.19,182.37 1087.84,183.82 1090.73,179.65 1093.48,182.39 1096.43,183.45 1099.23,181.2 1101.9,184.35 1104.73,184.43 1107.69,180.43 1110.51,183.06 1113.19,184.62 1116.2,185.43 1119.07,182.54 1121.8,181.81 1124.6,179.33 1127.46,183.42 1130.36,179.42 1133.12,181.8 1135.92,183.61 1138.73,183.65 1141.56,183.03 1144.4,184.05 1147.24,183.57 1150.06,183.51 1152.88,183.43 1155.79,186.72 1158.67,185.07 1161.41,186.73 1164.22,183.36 1167.08,185.8 1169.9,185.39 1172.76,185.24 1175.56,183.08 1178.39,185.04 1181.23,182.26 1184.0,184.41 1186.85,182.99 1189.68,186.28 1192.51,181.05 1195.31,183.75 1198.09,185.77 1200.96,183.75 1203.78,185.71 1206.61,183.51 1209.45,183.74 1212.27,183.23 1215.09,185.33 1217.89,185.18 1220.74,184.47 1223.57,185.63 1226.39,185.49 1229.21,184.45 1232.02,183.57 1234.86,184.51 1237.69,185.1 1240.51,184.69 1243.34,183.33 1246.16,186.27 1248.99,183.79 1251.81,184.16 1254.64,184.73 1257.47,184.37 1260.28,182.87 1263.1,185.58 1265.93,185.21 1268.76,185.03 1271.58,184.52 1274.4,185.38 1277.22,185.22 1280.05,184.72 1282.88,185.38 1285.7,184.93 1288.53,183.84 1291.35,185.8 1294.18,185.66 1297.01,185.03 1299.83,184.88 1302.65,184.58 1305.47,184.64 1308.3,184.83 1311.13,185.08 1313.95,184.19 1316.77,185.39 1319.6,184.89 1322.42,185.41 1325.24,184.28 1328.07,184.98 1330.89,185.18 1333.72,185.13 1336.55,184.64 1339.37,185.48 1342.19,185.32 1345.02,184.96 1347.84,184.98 1350.66,184.72 1353.49,184.75 1356.32,185.15 1359.14,185.07 1361.97,185.09 1364.79,184.83 1367.61,185.23 1370.44,185.64 1373.26,184.93 1376.09,185.44 1378.91,185.32 1381.74,185.25 1384.56,185.35 1387.38,185.05 1390.21,184.96 1393.03,184.7 1395.86,184.75 1398.68,184.94 1401.51,185.16 1404.33,185.14 1407.16,185.01 1409.98,184.89 1412.81,184.73 1415.63,185.11 1418.46,185.21 1421.28,184.82 1424.1,185.02 1426.93,184.92 1429.75,185.06 1432.58,184.84 1435.4,185.1 1438.23,185.03 1441.05,184.59 1443.88,185.1 1446.7,185.11 1449.53,184.99 1452.35,184.97 1455.18,185.12 1458.0,185.07"/>
<line x1="970.25" y1="106" x2="970.25" y2="560" stroke="#d62728" stroke-width="2" stroke-dasharray="7 5"/>
<line x1="1223" y1="139" x2="1257" y2="139" stroke="#d62728" stroke-width="2" stroke-dasharray="7 5"/>
<text x="1265" y="143" font-family="sans-serif" font-size="11">finite-sample limit n/10</text>
<line x1="1366.97" y1="106" x2="1366.97" y2="560" stroke="#2ca02c" stroke-width="2" stroke-dasharray="7 5"/>
<line x1="1223" y1="156" x2="1257" y2="156" stroke="#2ca02c" stroke-width="2" stroke-dasharray="7 5"/>
<text x="1265" y="160" font-family="sans-serif" font-size="11">approx. power-law onset</text>
<line x1="930.43" y1="106" x2="930.43" y2="560" stroke="#9467bd" stroke-width="2" stroke-dasharray="7 5"/>
<line x1="1223" y1="173" x2="1257" y2="173" stroke="#9467bd" stroke-width="2" stroke-dasharray="7 5"/>
<text x="1265" y="177" font-family="sans-serif" font-size="11">generator memory limit</text>
<text x="1120.0" y="608" text-anchor="middle" font-family="sans-serif" font-size="14">frequency</text>
<text x="782" y="343.0" transform="rotate(-90 782 343.0)" text-anchor="middle" font-family="sans-serif" font-size="14">average periodogram</text>
</svg>
