<svg xmlns="http://www.w3.org/2000/svg" width="900" height="650" viewBox="0 0 900 650">
<rect width="100%" height="100%" fill="white"/>
<text x="450.0" y="28" text-anchor="middle" font-family="sans-serif" font-size="20">PB3_WaveletMarkov_Spectral average autocorrelation</text>
<line x1="90" y1="570" x2="870" y2="570" stroke="black"/>
<line x1="90" y1="55" x2="90" y2="570" stroke="black"/>
<line x1="90.0" y1="570" x2="90.0" y2="575" stroke="black"/>
<text x="90.0" y="595" text-anchor="middle" font-family="sans-serif" font-size="12">10^0</text>
<line x1="256.3359476655611" y1="570" x2="256.3359476655611" y2="575" stroke="black"/>
<text x="256.3359476655611" y="595" text-anchor="middle" font-family="sans-serif" font-size="12">10^1</text>
<line x1="422.6718953311222" y1="570" x2="422.6718953311222" y2="575" stroke="black"/>
<text x="422.6718953311222" y="595" text-anchor="middle" font-family="sans-serif" font-size="12">10^2</text>
<line x1="589.0078429966834" y1="570" x2="589.0078429966834" y2="575" stroke="black"/>
<text x="589.0078429966834" y="595" text-anchor="middle" font-family="sans-serif" font-size="12">10^3</text>
<line x1="755.3437906622444" y1="570" x2="755.3437906622444" y2="575" stroke="black"/>
<text x="755.3437906622444" y="595" text-anchor="middle" font-family="sans-serif" font-size="12">10^4</text>
<line x1="85" y1="461.6326852217217" x2="90" y2="461.6326852217217" stroke="black"/>
<text x="80" y="465.6326852217217" text-anchor="end" font-family="sans-serif" font-size="12">10^-3</text>
<line x1="85" y1="304.1759384774313" x2="90" y2="304.1759384774313" stroke="black"/>
<text x="80" y="308.1759384774313" text-anchor="end" font-family="sans-serif" font-size="12">10^-2</text>
<line x1="85" y1="146.71919173314086" x2="90" y2="146.71919173314086" stroke="black"/>
<text x="80" y="150.71919173314086" text-anchor="end" font-family="sans-serif" font-size="12">10^-1</text>
<polyline fill="none" stroke="#1f77b4" stroke-width="2" points="90.0,55.0 140.07,116.14 169.36,167.14 190.14,204.0 206.26,228.39 219.43,242.07 230.57,251.23 240.22,258.17 248.72,261.6 256.34,265.65 263.22,270.25 269.51,274.47 275.29,274.05 280.64,275.46 285.63,278.93 290.29,279.97 294.67,280.74 298.8,284.22 302.7,285.77 306.41,287.81 309.93,289.66 313.29,290.92 316.5,292.14 319.58,292.95 322.53,294.86 325.36,295.55 329.4,295.29 333.25,297.22 336.88,297.86 340.36,300.51 343.66,300.95 347.85,306.15 351.81,308.59 354.65,304.84 358.25,310.95 362.53,314.56 365.78,314.77 368.89,314.26 372.59,318.93 376.12,320.91 379.48,317.31 383.31,318.75 386.96,320.87 390.43,317.92 393.74,325.19 397.41,331.39 400.92,327.06 404.25,326.13 407.89,331.64 411.35,329.0 415.05,337.74 418.58,333.32 421.94,336.51 425.5,339.85 429.22,340.09 432.76,343.19 436.14,347.06 439.93,350.61 443.54,351.53 446.97,347.57 450.5,349.99 454.09,351.02 457.74,353.4 461.21,356.26 464.72,356.31 468.27,354.54 471.83,360.25 475.4,365.94 478.96,363.76 482.52,365.68 486.06,365.01 489.72,369.2 493.34,371.64 496.79,376.96 500.32,380.19 503.93,370.9 507.47,376.25 511.07,377.91 514.59,385.57 518.15,382.26 521.72,383.4 525.21,385.15 528.78,391.17 532.35,396.04 535.9,392.11 539.43,397.22 542.93,400.89 546.53,400.53 550.09,399.33 553.65,402.04 557.21,395.34 560.71,412.52 564.26,409.31 567.83,409.68 571.42,417.13 574.97,415.77 578.52,426.09 582.07,427.49 585.6,420.39 589.14,420.77 592.7,421.6 596.28,414.75 599.85,421.8 603.39,418.02 606.95,428.08 610.49,441.56 614.05,432.47 617.61,432.12 621.15,441.24 624.69,439.79 628.26,444.47 631.8,449.49 635.34,450.61 638.91,451.73 642.46,457.91 646.01,463.95 649.56,463.87 653.11,465.19 656.67,473.58 660.23,468.01 663.78,489.37 667.31,482.36 670.88,460.76 674.43,477.4 677.99,475.29 681.5,476.4 685.08,494.83 688.66,502.27 692.19,494.34 695.77,498.04 699.34,493.28 702.86,492.98 706.34,511.1 710.03,516.49 713.5,515.84 717.16,532.89 720.63,531.36 724.19,521.52 727.79,509.97 731.17,505.55 734.73,516.26 738.33,524.52 741.95,515.54 745.41,524.21 749.23,533.94 752.42,531.01 756.09,540.0 759.53,545.71 763.29,556.31 766.98,537.21 770.19,531.61 773.8,546.72 777.55,538.73 780.9,535.27 784.73,544.24 787.91,543.3 791.72,556.73 795.26,548.4 798.57,546.66 802.4,540.31 805.94,552.73 809.39,548.12 812.77,555.6 816.69,561.91 820.3,557.99 823.78,549.93 826.92,551.9 830.7,564.09 834.07,546.82 837.86,558.87 841.22,561.82 845.22,561.3 848.23,556.18 852.08,568.45 855.66,565.64 859.12,560.31 862.64,556.84 866.44,570.0 870.0,562.84"/>
<line x1="755.34" y1="55" x2="755.34" y2="570" stroke="#d62728" stroke-width="2" stroke-dasharray="7 5"/>
<line x1="600" y1="73" x2="640" y2="73" stroke="#d62728" stroke-width="2" stroke-dasharray="7 5"/>
<text x="648" y="77" font-family="sans-serif" font-size="12">finite-sample limit n/10</text>
<text x="450.0" y="625" text-anchor="middle" font-family="sans-serif" font-size="16">lag</text>
<text x="25" y="325.0" transform="rotate(-90 25 325.0)" text-anchor="middle" font-family="sans-serif" font-size="16">positive average autocorrelation</text>
</svg>
