<svg xmlns="http://www.w3.org/2000/svg" width="1200" height="514" viewBox="0 0 1200 514">
<rect width="100%" height="100%" fill="white"/>
<text x="600.0" y="30" text-anchor="middle" font-family="sans-serif" font-size="22">Relative generation time, k=8, n=1000000</text>
<text x="600.0" y="52" text-anchor="middle" font-family="sans-serif" font-size="13">Bars are normalized to the fastest method in this benchmark slice</text>
<text x="288" y="91" text-anchor="end" font-family="sans-serif" font-size="12">MB2</text>
<rect x="300" y="76" width="6.67" height="20" fill="#1f77b4"/>
<text x="314.67299384437524" y="91" font-family="sans-serif" font-size="12">1.0x (13.478 ms)</text>
<text x="288" y="125" text-anchor="end" font-family="sans-serif" font-size="12">MB5</text>
<rect x="300" y="110" width="11.19" height="20" fill="#ff7f0e"/>
<text x="319.19272246708476" y="125" font-family="sans-serif" font-size="12">1.68x (22.607 ms)</text>
<text x="288" y="159" text-anchor="end" font-family="sans-serif" font-size="12">MB3</text>
<rect x="300" y="144" width="11.5" height="20" fill="#2ca02c"/>
<text x="319.5041597280284" y="159" font-family="sans-serif" font-size="12">1.72x (23.236 ms)</text>
<text x="288" y="193" text-anchor="end" font-family="sans-serif" font-size="12">PB4</text>
<rect x="300" y="178" width="49.35" height="20" fill="#d62728"/>
<text x="357.3462898751694" y="193" font-family="sans-serif" font-size="12">7.39x (99.669 ms)</text>
<text x="288" y="227" text-anchor="end" font-family="sans-serif" font-size="12">PB1</text>
<rect x="300" y="212" width="56.96" height="20" fill="#9467bd"/>
<text x="364.96047723268185" y="227" font-family="sans-serif" font-size="12">8.54x (115.048 ms)</text>
<text x="288" y="261" text-anchor="end" font-family="sans-serif" font-size="12">PB3</text>
<rect x="300" y="246" width="69.45" height="20" fill="#8c564b"/>
<text x="377.4523902343467" y="261" font-family="sans-serif" font-size="12">10.41x (140.279 ms)</text>
<text x="288" y="295" text-anchor="end" font-family="sans-serif" font-size="12">MB1c</text>
<rect x="300" y="280" width="135.76" height="20" fill="#e377c2"/>
<text x="443.76321146863376" y="295" font-family="sans-serif" font-size="12">20.35x (274.212 ms)</text>
<text x="288" y="329" text-anchor="end" font-family="sans-serif" font-size="12">MB4</text>
<rect x="300" y="314" width="139.33" height="20" fill="#7f7f7f"/>
<text x="447.3325867810861" y="329" font-family="sans-serif" font-size="12">20.88x (281.422 ms)</text>
<text x="288" y="363" text-anchor="end" font-family="sans-serif" font-size="12">MB1a</text>
<rect x="300" y="348" width="140.36" height="20" fill="#bcbd22"/>
<text x="448.3644276681265" y="363" font-family="sans-serif" font-size="12">21.03x (283.506 ms)</text>
<text x="288" y="397" text-anchor="end" font-family="sans-serif" font-size="12">PB2</text>
<rect x="300" y="382" width="217.43" height="20" fill="#17becf"/>
<text x="525.4277825371081" y="397" font-family="sans-serif" font-size="12">32.58x (439.157 ms)</text>
<text x="288" y="431" text-anchor="end" font-family="sans-serif" font-size="12">MB1b</text>
<rect x="300" y="416" width="770.0" height="20" fill="#4c78a8"/>
<text x="1078.0" y="431" font-family="sans-serif" font-size="12">115.39x (1555.233 ms)</text>
<text x="685.0" y="492" text-anchor="middle" font-family="sans-serif" font-size="14">relative time, fastest = 1x</text>
</svg>
